# xmcd CD database file
#
# Track frame offsets:
#	150
#	24852
#	50787
#	71960
#	96015
#	122367
#	144847
#	169245
#	194052
#	209025
#	230557
#	254877
#
# Disc length: 3591 seconds
#
# Revision: 0
# Processed by: cddbd v1.5.2PL0 Copyright (c) Steve Scherf et al.
# Submitted via: CDex 1.70beta2
#
DISCID=ba0e050c
DTITLE=Gregg Bacon - Makin' Bacon
DYEAR=1994
DGENRE=Jazz
TTITLE0=Secret Place
TTITLE1=I'm Gonna Love You Just a Little More
TTITLE2=Sunny
TTITLE3=Essence of Love
TTITLE4=Little Sunflower
TTITLE5=Makin' Bacon
TTITLE6=I Give My Heart
TTITLE7=Pride and Joy
TTITLE8=Travel Time
TTITLE9=Thinking About You
TTITLE10=Gone Ahead
TTITLE11=The Saloon Song
EXTD=YEAR: 1994
EXTT0=
EXTT1=
EXTT2=
EXTT3=
EXTT4=
EXTT5=
EXTT6=
EXTT7=
EXTT8=
EXTT9=
EXTT10=
EXTT11=
PLAYORDER=
